<svg xmlns="http://www.w3.org/2000/svg" viewBox="0 0 100 100">
  <defs>
    <linearGradient id="chocolate" x1="0%" y1="0%" x2="100%" y2="100%">
      <stop offset="0%" style="stop-color:#5D3A1F"/>
      <stop offset="100%" style="stop-color:#3D2314"/>
    </linearGradient>
    <linearGradient id="cream" x1="0%" y1="0%" x2="0%" y2="100%">
      <stop offset="0%" style="stop-color:#FFF8DC"/>
      <stop offset="100%" style="stop-color:#F5E6D3"/>
    </linearGradient>
  </defs>
  <!-- Cup -->
  <path d="M20 35 L25 85 Q27 92 50 92 Q73 92 75 85 L80 35 Z" fill="url(#chocolate)"/>
  <!-- Shake/Cream top -->
  <ellipse cx="50" cy="35" rx="32" ry="10" fill="url(#cream)"/>
  <!-- Whipped cream swirl -->
  <path d="M50 10 Q55 15 50 22 Q45 28 50 32 Q40 30 35 25 Q30 18 40 15 Q48 12 50 10" fill="#FFF8DC"/>
  <path d="M50 10 Q45 15 50 22 Q55 28 50 32 Q60 30 65 25 Q70 18 60 15 Q52 12 50 10" fill="#FFFAF0"/>
  <!-- Cherry on top -->
  <circle cx="50" cy="8" r="6" fill="#C41E3A"/>
  <path d="M50 2 Q55 0 52 -3" stroke="#2d5a27" stroke-width="2" fill="none"/>
  <!-- Straw -->
  <rect x="58" y="5" width="4" height="45" rx="2" fill="#E8D4B8"/>
</svg>
